# xmcd
#
# Track frame offsets: 
#        150
#        22953
#        41780
#        59034
#        78089
#        95796
#        107951
#        131280
#        149287
#        169162
#        181993
#        198944
#        220400
#        235852
#        259107
#
# Disc length: 3613 seconds
#
# Revision: 3
# Processed by: cddbd v1.5.2PL0 Copyright (c) Steve Scherf et al.
# Submitted via: ExactAudioCopyFreeDBPlugin 1.0
#
DISCID=d70e1b0f
DTITLE=Joe Cocker - 2003 - The Ultimate Collection Cd 1
DYEAR=2003
DGENRE=Blues
TTITLE0=Unchain My Heart
TTITLE1=Feelin' Alright
TTITLE2=Summer In The City
TTITLE3=You Can Leave Your Hat On
TTITLE4=Up Where We Belong [ft. Jennifer Warnes]
TTITLE5=You Are So Beautiful
TTITLE6=With A Little Help From My Friends
TTITLE7=Cry Me A River [Live]
TTITLE8=The Letter [Live]
TTITLE9=Delta Lady
TTITLE10=Many Rivers To Cross
TTITLE11=When The Night Comes
TTITLE12=Night Calls
TTITLE13=Don't You Love Me Anymore
TTITLE14=She Came In Through The Bathroom Window
EXTD=YEAR: 2003
EXTT0=
EXTT1=
EXTT2=
EXTT3=
EXTT4=
EXTT5=
EXTT6=
EXTT7=
EXTT8=
EXTT9=
EXTT10=
EXTT11=
EXTT12=
EXTT13=
EXTT14=
PLAYORDER=
